HIERARCHY
ROOT Hips
{
	OFFSET -14.64140 90.27770 -84.91600
	CHANNELS 6 Xposition Yposition Zposition Zrotation Xrotation Yrotation
	JOINT Spine
	{
		OFFSET 0.00000 13.20850 -1.60436
		CHANNELS 3 Zrotation Xrotation Yrotation
		JOINT Spine1
		{
			OFFSET 0.00000 8.61716 0.00000
			CHANNELS 3 Zrotation Xrotation Yrotation
			JOINT Spine2
			{
				OFFSET 0.00000 8.61717 0.00000
				CHANNELS 3 Zrotation Xrotation Yrotation
				JOINT Spine3
				{
					OFFSET 0.00000 8.61717 0.00000
					CHANNELS 3 Zrotation Xrotation Yrotation
					JOINT Neck
					{
						OFFSET 0.00000 11.07920 1.10792
						CHANNELS 3 Zrotation Xrotation Yrotation
						JOINT Neck1
						{
							OFFSET 0.00000 7.08032 0.00000
							CHANNELS 3 Zrotation Xrotation Yrotation
							JOINT Head
							{
								OFFSET 0.00000 7.08031 0.00000
								CHANNELS 3 Zrotation Xrotation Yrotation
								End site
								{
									OFFSET 0.00000 0.00000 0.00000
								}
							}
						}
					}
					JOINT RightShoulder
					{
						OFFSET -0.01000 7.91373 5.19711
						CHANNELS 3 Zrotation Xrotation Yrotation
						JOINT RightArm
						{
							OFFSET -18.41580 0.00000 0.00000
							CHANNELS 3 Zrotation Xrotation Yrotation
							JOINT RightForeArm
							{
								OFFSET -29.11090 0.00000 0.00000
								CHANNELS 3 Zrotation Xrotation Yrotation
								JOINT RightHand
								{
									OFFSET -24.65040 0.00000 0.00000
									CHANNELS 3 Zrotation Xrotation Yrotation
									JOINT RightHandThumb1
									{
										OFFSET -5.35114 -0.85590 3.97906
										CHANNELS 3 Zrotation Xrotation Yrotation
										JOINT RightHandThumb2
										{
											OFFSET -4.52789 0.00000 0.00000
											CHANNELS 3 Zrotation Xrotation Yrotation
											JOINT RightHandThumb3
											{
												OFFSET -2.46976 0.00000 0.00000
												CHANNELS 3 Zrotation Xrotation Yrotation
												End site
												{
													OFFSET 0.00000 0.00000 0.00000
												}
											}
										}
									}
									JOINT RightHandIndex1
									{
										OFFSET -14.26970 0.00000 2.88139
										CHANNELS 3 Zrotation Xrotation Yrotation
										JOINT RightHandIndex2
										{
											OFFSET -5.48836 0.00000 0.00000
											CHANNELS 3 Zrotation Xrotation Yrotation
											JOINT RightHandIndex3
											{
												OFFSET -3.01859 0.00000 0.00000
												CHANNELS 3 Zrotation Xrotation Yrotation
												End site
												{
													OFFSET 0.00000 0.00000 0.00000
												}
											}
										}
									}
									JOINT RightHandMiddle1
									{
										OFFSET -14.26970 0.00000 -0.09147
										CHANNELS 3 Zrotation Xrotation Yrotation
										JOINT RightHandMiddle2
										{
											OFFSET -6.17441 0.00000 0.00000
											CHANNELS 3 Zrotation Xrotation Yrotation
											JOINT RightHandMiddle3
											{
												OFFSET -3.56743 0.00000 0.00000
												CHANNELS 3 Zrotation Xrotation Yrotation
												End site
												{
													OFFSET 0.00000 0.00000 0.00000
												}
											}
										}
									}
									JOINT RightHandRing1
									{
										OFFSET -12.69180 0.00000 -3.06433
										CHANNELS 3 Zrotation Xrotation Yrotation
										JOINT RightHandRing2
										{
											OFFSET -5.62556 0.00000 0.00000
											CHANNELS 3 Zrotation Xrotation Yrotation
											JOINT RightHandRing3
											{
												OFFSET -3.56744 0.00000 0.00000
												CHANNELS 3 Zrotation Xrotation Yrotation
												End site
												{
													OFFSET 0.00000 0.00000 0.00000
												}
											}
										}
									}
									JOINT RightHandPinky1
									{
										OFFSET -11.11390 0.00000 -6.03719
										CHANNELS 3 Zrotation Xrotation Yrotation
										JOINT RightHandPinky2
										{
											OFFSET -4.52789 0.00000 0.00000
											CHANNELS 3 Zrotation Xrotation Yrotation
											JOINT RightHandPinky3
											{
												OFFSET -2.46976 0.00000 0.00000
												CHANNELS 3 Zrotation Xrotation Yrotation
												End site
												{
													OFFSET 0.00000 0.00000 0.00000
												}
											}
										}
									}
								}
							}
						}
					}
					JOINT LeftShoulder
					{
						OFFSET 0.01000 7.91373 5.19711
						CHANNELS 3 Zrotation Xrotation Yrotation
						JOINT LeftArm
						{
							OFFSET 18.41580 0.00000 0.00000
							CHANNELS 3 Zrotation Xrotation Yrotation
							JOINT LeftForeArm
							{
								OFFSET 29.11090 0.00000 0.00000
								CHANNELS 3 Zrotation Xrotation Yrotation
								JOINT LeftHand
								{
									OFFSET 24.65040 0.00000 0.00000
									CHANNELS 3 Zrotation Xrotation Yrotation
									JOINT LeftHandThumb1
									{
										OFFSET 5.35114 -0.85590 3.97906
										CHANNELS 3 Zrotation Xrotation Yrotation
										JOINT LeftHandThumb2
										{
											OFFSET 4.52789 0.00000 0.00000
											CHANNELS 3 Zrotation Xrotation Yrotation
											JOINT LeftHandThumb3
											{
												OFFSET 2.46977 0.00000 0.00000
												CHANNELS 3 Zrotation Xrotation Yrotation
												End site
												{
													OFFSET 0.00000 0.00000 0.00000
												}
											}
										}
									}
									JOINT LeftHandIndex1
									{
										OFFSET 14.26970 0.00000 2.88139
										CHANNELS 3 Zrotation Xrotation Yrotation
										JOINT LeftHandIndex2
										{
											OFFSET 5.48836 0.00000 0.00000
											CHANNELS 3 Zrotation Xrotation Yrotation
											JOINT LeftHandIndex3
											{
												OFFSET 3.01859 0.00000 0.00000
												CHANNELS 3 Zrotation Xrotation Yrotation
												End site
												{
													OFFSET 0.00000 0.00000 0.00000
												}
											}
										}
									}
									JOINT LeftHandMiddle1
									{
										OFFSET 14.26970 0.00000 -0.09147
										CHANNELS 3 Zrotation Xrotation Yrotation
										JOINT LeftHandMiddle2
										{
											OFFSET 6.17440 0.00000 0.00000
											CHANNELS 3 Zrotation Xrotation Yrotation
											JOINT LeftHandMiddle3
											{
												OFFSET 3.56744 0.00000 0.00000
												CHANNELS 3 Zrotation Xrotation Yrotation
												End site
												{
													OFFSET 0.00000 0.00000 0.00000
												}
											}
										}
									}
									JOINT LeftHandRing1
									{
										OFFSET 12.69180 0.00000 -3.06433
										CHANNELS 3 Zrotation Xrotation Yrotation
										JOINT LeftHandRing2
										{
											OFFSET 5.62556 0.00000 0.00000
											CHANNELS 3 Zrotation Xrotation Yrotation
											JOINT LeftHandRing3
											{
												OFFSET 3.56744 0.00000 0.00000
												CHANNELS 3 Zrotation Xrotation Yrotation
												End site
												{
													OFFSET 0.00000 0.00000 0.00000
												}
											}
										}
									}
									JOINT LeftHandPinky1
									{
										OFFSET 11.11390 0.00000 -6.03719
										CHANNELS 3 Zrotation Xrotation Yrotation
										JOINT LeftHandPinky2
										{
											OFFSET 4.52789 0.00000 0.00000
											CHANNELS 3 Zrotation Xrotation Yrotation
											JOINT LeftHandPinky3
											{
												OFFSET 2.46976 0.00000 0.00000
												CHANNELS 3 Zrotation Xrotation Yrotation
												End site
												{
													OFFSET 0.00000 0.00000 0.00000
												}
											}
										}
									}
								}
							}
						}
					}
					JOINT pCube4
					{
						OFFSET 0.00000 10.91090 1.10792
						CHANNELS 3 Zrotation Xrotation Yrotation
						End site
						{
							OFFSET 0.00000 0.00000 0.00000
						}
					}
				}
			}
		}
	}
	JOINT RightUpLeg
	{
		OFFSET -9.98441 0.00000 0.00000
		CHANNELS 3 Zrotation Xrotation Yrotation
		JOINT RightLeg
		{
			OFFSET 0.00000 -42.11790 0.00000
			CHANNELS 3 Zrotation Xrotation Yrotation
			JOINT RightFoot
			{
				OFFSET 0.00000 -45.00020 -0.00001
				CHANNELS 3 Zrotation Xrotation Yrotation
				JOINT RightForeFoot
				{
					OFFSET 0.00000 -3.74820 0.00000
					CHANNELS 3 Zrotation Xrotation Yrotation
					JOINT RightToeBase
					{
						OFFSET 0.00000 0.06325 14.43120
						CHANNELS 3 Zrotation Xrotation Yrotation
						End site
						{
							OFFSET 0.00000 0.00000 0.00000
						}
					}
				}
			}
		}
	}
	JOINT LeftUpLeg
	{
		OFFSET 9.98441 0.00000 0.00000
		CHANNELS 3 Zrotation Xrotation Yrotation
		JOINT LeftLeg
		{
			OFFSET 0.00000 -42.11800 0.00000
			CHANNELS 3 Zrotation Xrotation Yrotation
			JOINT LeftFoot
			{
				OFFSET 0.00000 -45.00070 0.00000
				CHANNELS 3 Zrotation Xrotation Yrotation
				JOINT LeftForeFoot
				{
					OFFSET 0.00000 -3.74824 0.00000
					CHANNELS 3 Zrotation Xrotation Yrotation
					JOINT LeftToeBase
					{
						OFFSET 0.00000 0.06325 14.43110
						CHANNELS 3 Zrotation Xrotation Yrotation
						End site
						{
							OFFSET 0.00000 0.00000 0.00000
						}
					}
				}
			}
		}
	}
}
MOTION
Frames: 4
Frame Time: 0.050000
0.03787119506675052 -0.016763153975995704 0.038583782466893875 0.004715475040958815 0.02745443523562824 -0.015709009552933525 1.359763420500441 2.369794603436328 -1.4898092664310305 -0.5247289666329832 3.947946831810996 0.356775823878151 -0.6543031079393924 -1.456261137386685 1.8871736239791277 -0.8326420243243057 -0.5957522390888985 -0.16579532137272857 0.04335317897122756 12.423046767192938 -0.7736421133759737 0.49538955953287567 -1.1251031901720538 -3.040733738014332 0.9475341775529326 -17.139690414609134 -0.25210140818429094 -4.527393430848522 1.8771611185261665 -16.13009902868713 72.49274515094488 15.329012194863378 6.935291339281413 0.39441093596763827 1.416989542544586 65.50442402650684 27.34820719569461 -0.3087646733505756 -5.737025378391447 4.578075998958317 -0.16203700619106892 -1.593753364175952 -0.03149387840033889 0.0023034749261278045 -56.19386206559473 -0.02923933271204498 0.0011322463231851854 -56.214039741324555 -38.80478210655131 0.00541525446006794 0.02993786714157575 0.023968567212958966 -0.02400873556316409 -0.0026580645577364364 0.038243210011716725 0.03883413197343279 0.04783717965618342 -36.70426623064335 0.013217676989983204 -0.006978746322080225 -0.044416928994647845 -0.008297959214421783 0.01575767891899628 0.015197905207864302 0.04352303191272406 0.012559784649885507 -19.768656585182807 0.013321255611916475 0.04061033756128958 -0.01864883116071955 -0.03306096386451986 0.016322566774304218 -0.04034080619212709 -0.006937201570156504 0.02887935810421147 24.029747371891194 0.008125364920922694 0.021048418475349474 28.87227172845644 0.009836256744340162 0.04445063777262971 28.907137973319905 -0.04220333814389714 0.02891025530206764 4.365380196938684 1.3523461800274696 14.887852053562725 -79.15444348293536 22.132898201094967 -2.058394003196955 9.44666845900171 3.9072609321201344 -36.82166299421858 -28.565652040842206 9.300462186747032 -5.10388912392447 -0.5126571108233082 0.059758593466126796 -8.121642850873814 -0.015414346314978658 -0.01040071213508995 44.53525665312567 -0.008418557620942888 0.03555495579776026 44.585411844043755 12.472501976366845 -0.04318760895542026 -0.030133024431636898 0.032492857272201116 -0.02594134439678964 0.023446421856186523 0.03940555573567531 0.036417713593126254 0.047620723773761996 11.132382923131802 -0.01770584644422213 -0.027763823352156356 -0.01768631500266998 0.009058572066449744 0.004858857186687039 -0.019947541926187272 -0.007083926331690392 -0.0336680915808973 4.768317824867528 0.04229449831824037 -0.03467716637313212 -0.04026435702724464 -0.03481843977069032 -0.042375967640302235 -0.038689284959226744 -0.0006393014857407687 0.046170131811802864 -5.58272876250667 -0.0219875598207577 -0.026297854559875516 -6.7352215968133295 0.01733895893820638 -0.0039009682695945814 -6.708417911568947 -0.015288658938469821 -0.0050703006265322165 0.011751855554616483 0.03332150976859711 -0.012844194103261264 8.076618314874288 3.4885188908715947 -19.207018438468616 0.017490046184271822 10.34563373752535 0.026690721280892334 -5.659880012379605 -15.67303215520421 3.152431185432906 -0.04061099832682437 -0.04029224639753133 -0.04777880542842076 0.04495746441205211 4.673088608785424 0.0007392684165184154 12.477117255510578 -8.274711172551445 6.861402264499285 0.007355535085375614 46.41194861538301 0.02090855558253176 -4.292456837860539 -14.770322348258562 -3.8650685270691003 -0.0036739980997633126 -0.0014997174275862232 -0.0006357446568479793 0.02917718274217668 -10.773745856482535 0.0015885833052232256 
-0.04534234381755371 0.013109001685641306 -0.03755482386655998 -0.013371812343683615 0.008012086910584094 -0.014075758084695437 1.7587734942446074 2.5280999523781977 -1.5905322294955357 -0.5152660703228747 3.903397384805849 0.3095218752332983 -0.7061847586078706 -1.4134835534057328 1.7640121878114905 -0.8234871232351944 -0.578600337833389 -0.22388573858105784 0.0819567408785419 12.249325629441119 -0.9333495062134458 0.5224647605972935 -1.1176236534491268 -2.979223465963318 0.9332667535729489 -17.15319366135646 -0.33355823135898255 -5.085706145609797 2.1125611358057377 -16.388935727411518 74.43883762723999 13.957106331557657 6.051206772713473 -1.6145302571399234 0.7803916240791965 61.862653306728234 27.043966317995892 -0.27910981248190325 -5.730508853864027 4.530893071915464 -0.1528929329269 -1.559853690931653 -0.003201677120464966 0.039802465951153734 -56.25830929024025 -0.01786880476351685 -0.015857113850112885 -56.256511294745316 -38.814065022482644 0.03626294300444125 -0.003278424876294095 -0.045553829690704546 -0.04421448963875627 -0.04643894091925275 0.02880595686047835 0.0476237116564959 -0.03904214377623881 -36.71769756961949 0.02353508947021528 0.024069373942693626 -0.021628403629568173 0.03167913733090292 0.03377961592919295 0.02049624811545925 0.025907465101772754 -0.010817849270210197 -19.71003557341518 -0.01615695002006114 0.017777229141781974 0.013396104649076744 -0.02763787989659725 0.010528355151923458 -0.0462182828156822 -0.001118767193381122 -0.0077961763430475384 24.08808297733348 0.029669166946116345 0.04464118012796115 28.873509092907906 0.03469846866185031 0.020522183776470478 28.87932622942045 0.04627500001267982 -0.045112730503261034 4.784171039461269 1.4033416691363632 14.874140535372748 -79.31023389690563 21.74301960320775 -2.5642453756149726 9.410636597387755 3.5578663939202975 -36.13127593174531 -27.702109127910816 8.034691399458797 -4.084564945687212 -0.47290846610459486 0.09027866370766897 -8.099914860821732 0.009672265428410135 0.004266152507164772 44.57011664424 0.02972534824295124 0.019157820089813576 44.596664319495765 12.43444835537728 -0.01827844913794058 0.038086815595643794 -0.004725717975833799 -0.02724360029826719 0.017832458554724345 0.03895451482342665 0.036399416831753906 -0.03152763006717111 11.08687124462545 0.0067577578854782295 -0.0010187379819134284 -0.027936943581233994 -0.003898914414235439 0.04570726383759205 0.03822581820167984 0.007757433217366247 0.028450482462767337 4.76889072461579 -0.030149036486986563 -0.024549805186369168 0.0315505344664579 -0.01344128384447148 0.01070877231123227 -0.0263044825206765 0.017386112379796856 0.045248587088783876 -5.558969774949784 0.01889171774041564 -0.013208853507901956 -6.688100302999331 0.020576927870649093 -0.02994704154729178 -6.734795014865288 -0.023367522301636127 -0.03401408355569317 0.03617235482376352 -0.017536539653618278 0.016232041547793508 8.01649537903201 3.535566745963304 -19.26524330841191 0.02318761166626821 10.397839686905018 0.03873069498475219 -5.638074579924142 -15.654806318161 3.155250023164444 0.019468193110829108 0.03473627581243196 0.015429739042286483 -0.009622194232607538 4.697406681376139 -0.04710519079677947 12.461096657790263 -8.237246773835654 6.846930266019039 -0.0049167405437391485 46.42361167475676 -0.030255978549082435 -4.338878177929851 -14.738867422288019 -3.8718729145664423 0.04867432562983713 -0.016948948125125443 0.028202537845598296 -0.03404114013412224 -10.736944713929221 0.0067653354217506135 
-0.009603374599382167 0.04579057746431767 0.005981728162561224 0.03282594153306114 -0.011207295896872601 -0.0070319005280335125 2.276380699093339 2.6763276443858017 -1.7248776935170462 -0.5476756731356605 3.8418116955390853 0.3188950845175624 -0.6858104810964599 -1.385185161694001 1.636266900398924 -0.83166078825094 -0.6195312018898564 -0.1681709415805048 0.14932087400056687 12.334572954301187 -0.9833712101224622 0.5561665413845063 -1.0804276006889628 -3.0233417952962673 1.0566286734718329 -17.143286169077534 -0.33473181708982636 -5.838210909933987 2.2498821596555447 -16.813163880802758 76.13540984488115 13.031787444616654 5.56468907366591 -3.538511120496401 0.1722243507224906 59.550264126992474 26.649620151937228 -0.3181768189767602 -5.769578639156569 4.57568420982271 -0.1406584547358211 -1.5599561185403539 0.024369170026391017 -0.04688900351120409 -56.18474173661122 -0.019889202891392288 -0.02148984676114607 -56.26888416823442 -38.77926808085459 0.026661126255272994 -0.01167954457386911 -0.01532918975904328 -0.019667177278612807 0.021675322028195866 -0.029209522645050428 -0.011555022614035817 0.013188610749779972 -36.72714157353193 -0.01739810976700559 0.009384934979351315 -0.006666777142128949 0.027803107397377284 0.008177548324465758 -0.03360597697029668 -0.033939110756559955 0.031773190062838415 -19.805084124152337 0.03773687102710352 0.01416519526637396 -0.011945200302542446 0.03146233585981534 -0.03551891473177591 -0.03079498431727953 0.020937625982299705 0.02563743392465914 24.05104855610263 0.0066052964205861224 -0.031445282609662395 28.860123695011552 -0.04505199498809696 0.02120142429274507 28.894302078552613 -0.019463780455523442 -0.008978778240113942 5.388591771061603 1.5478671716319734 14.995107171812878 -79.5802131537233 21.199872792972418 -3.211966122429937 9.344460919949414 3.6716548101034667 -35.81700474317959 -27.02983530556678 7.09206112184898 -3.1656919586074967 -0.5050895390818836 0.07443936933271887 -8.136977327345056 0.015469675426994421 0.027532251942963618 44.616721347618466 0.03283465827854782 0.021563453940917042 44.589644999881685 12.41925069821733 0.007347044006651383 -0.02364678747000774 -0.03437240554768125 0.013530373939752099 -0.026399822529290372 -0.04247550377727581 -0.03586401104982836 0.01722802695799547 11.10579943166835 0.03743867060934581 -0.01146566947385831 -0.02516285383968014 -0.04558696638335589 0.02699250113030434 -0.010018578594700534 -0.04363197877783557 -0.0026854390992656373 4.72385231201646 -0.013112462800674239 -0.043950305104409226 -0.017615612391937756 -0.019410214555550864 0.008738172595118927 -0.029896790884580433 0.04820615778420564 0.0008340618159740235 -5.60902109126425 0.04961740265284264 0.01943853759554673 -6.756739537506525 -0.012995502759248934 -0.0012659745793557292 -6.747600664857511 0.0005946920438533951 0.004309119522112211 0.011461116904091545 -0.0369146323220578 0.00976988714745217 8.093465732024406 3.4446869805919693 -19.2445184331535 0.024886561531394798 10.433671724024931 0.026766674865024615 -5.587785261100125 -15.682435686302487 3.1736253184409695 -0.004831684333407986 -0.04298873511183812 -0.02769851083364117 0.014083660896939139 4.707872754406402 0.01967135926604611 12.501023818358668 -8.270224667313235 6.835096519215291 0.03279975130298811 46.35351223094578 0.04146108187722873 -4.36045230515536 -14.77122430868246 -3.8165805810009577 -0.036366023100101154 0.04163858789539971 0.029331482684331434 0.0236745476645059 -10.731188887975163 0.023808368486487916 
-0.004131969966936174 -0.025669542344482994 0.017843841706429775 -0.04365041099984477 0.030575599658633414 0.03739157700628736 2.8593401483387013 2.781677072432656 -1.7910162506989855 -0.6062604893033362 3.788630512203499 0.38872611335355317 -0.6801908198877376 -1.3604713561022082 1.6149702787696365 -0.7940920530575423 -0.561292044533234 -0.19779253934757945 0.14067069760744721 12.380143713039224 -1.2218294402702026 0.5792637093324676 -0.982767048109005 -3.2323718608390704 1.148716543118794 -17.23576155866422 -0.3332564067919793 -6.621802991192935 2.479179387464451 -17.199709778702402 77.67129650448793 12.504487441736298 5.15125198879867 -5.756256613306755 0.22328570677771625 57.4939682888165 26.192770474680437 -0.33472105971084953 -5.652472457905361 4.484316744307206 -0.11128104930309597 -1.5700848763797888 -0.023399139226513013 0.03919773467052291 -56.2159307066093 -0.01431940803301087 0.014242943816135023 -56.244905390996074 -38.768425352470054 -0.019321100969261613 -0.04696526557575744 0.01815164947401495 -0.0017452602754573056 -0.02550408027814204 0.022759067629258688 0.043873796032105505 0.03308839160257238 -36.720653297552175 0.041307048635586596 0.008720590459230565 -0.03124732843152068 -0.02753089373921532 -0.022942431741840238 0.012052871831890211 -0.03942698397609332 0.021179496879898903 -19.734253916599553 -0.04449997780803051 -0.027533411003922245 0.02781740343250587 0.019364838046782327 0.04980535236457261 0.003953725875261219 0.028273739735628 0.036495175030326864 24.09259526276832 -0.013439628643606163 0.027529610837616545 28.82296760736033 -0.024620542340054893 -0.040588092934005046 28.847479038896637 -0.016495371934391278 0.0007146406177632264 6.01970935681315 1.719379912531424 15.067532853848688 -79.73443107186434 20.70387231892325 -3.6875780841347057 9.23172514176946 4.181699958147061 -35.698930810329244 -26.505768736531106 6.1128341881432275 -2.3677231364772284 -0.4300280568338661 0.09880835678850472 -8.155879732662795 0.045415098130611994 -0.01591857412779044 44.57160387886659 -0.0301876014526349 -0.026830925811530584 44.54462059995835 12.471737538504827 -0.036192101599567636 0.0034491958253199642 0.03524773108062166 -0.03397863958056829 -0.019323718471709758 -0.003934348650918294 -0.01456955389934429 0.005177425424485574 11.139531708150928 -0.005285155946850162 -0.002357663199473978 0.047886202565957665 0.04808217770703928 0.014110490464622231 0.016970218588328968 -0.021800454426420496 0.03812250176977866 4.765373854422222 -0.004819831363390363 -0.004041117528121541 -0.010821769458096828 0.024602275798300294 -0.026476836394007785 0.031014602111811784 -0.005046167335803833 0.04944580475282679 -5.577658570606799 0.027483094100831093 -0.04477926496578766 -6.689912824366129 -0.02775644453826783 0.022492888629005538 -6.7514609634336615 0.048761433870224136 0.04507639089864351 -0.035493351438498306 0.010825987251126887 0.03517224220803412 8.034869649938322 3.470052597866446 -19.19652884765615 0.025568624316595213 10.418381470105086 0.048889601209279335 -5.615901279254552 -15.666794727664856 3.1739581841963633 0.04678275631677984 0.025509611638935167 -0.031426221340588034 -0.02277785406761556 4.663966986355796 0.019756908144070873 12.424479487554565 -8.252574310967058 6.904134612456004 -0.018195026122671328 46.377857038337055 -0.008000669740219386 -4.354954895815799 -14.710920593158216 -3.854678954398577 -0.027709725960573223 -0.038015315110389365 0.014132488606369316 0.022174818176024326 -10.730078569260634 -0.03970888002648984 
